<?xml version="1.0" encoding="UTF-8"?>
<svg version="1.1" xmlns="http://www.w3.org/2000/svg" width="64" height="64">
<path d="M0 0 C8.34296853 4.97488123 13.53708251 11.86384564 16.109375 21.2578125 C16.89814221 30.10851435 17.06941889 38.555881 12.109375 46.2578125 C11.67367187 46.96421875 11.23796875 47.670625 10.7890625 48.3984375 C6.10935787 55.30291974 0.10880944 59.05772679 -7.890625 61.2578125 C-16.74132685 62.04657971 -25.1886935 62.21785639 -32.890625 57.2578125 C-33.59703125 56.82210937 -34.3034375 56.38640625 -35.03125 55.9375 C-41.93709584 51.25687115 -45.68778524 45.25759899 -47.890625 37.2578125 C-48.88914012 26.15803978 -48.24009702 16.5233259 -41.140625 7.4453125 C-30.84272373 -3.5807232 -13.59449082 -6.52353083 0 0 Z M-3.88354492 17.91015625 C-4.99113159 19.04130859 -4.99113159 19.04130859 -6.12109375 20.1953125 C-6.92353516 21.00742187 -7.72597656 21.81953125 -8.55273438 22.65625 C-9.38611328 23.51476562 -10.21949219 24.37328125 -11.078125 25.2578125 C-11.92310547 26.11632813 -12.76808594 26.97484375 -13.63867188 27.859375 C-15.72950798 29.985649 -17.81304483 32.11859714 -19.890625 34.2578125 C-23.63450202 32.4646083 -26.21172274 30.25088881 -29.20703125 27.40234375 C-29.76261719 27.02464844 -30.31820313 26.64695312 -30.890625 26.2578125 C-31.880625 26.5878125 -32.870625 26.9178125 -33.890625 27.2578125 C-33.34395893 31.2393637 -31.42943037 33.15188991 -28.640625 35.9453125 C-27.48820312 37.12673828 -27.48820312 37.12673828 -26.3125 38.33203125 C-23.59623447 40.49190045 -22.33946564 41.11897537 -18.890625 41.2578125 C-16.23650269 39.51657421 -16.23650269 39.51657421 -13.7734375 36.90234375 C-13.31202362 36.44429855 -12.85060974 35.98625336 -12.37521362 35.514328 C-11.40493395 34.54374969 -10.44209603 33.56568242 -9.48632812 32.58081055 C-8.01867937 31.07344952 -6.52389321 29.59767506 -5.0234375 28.12304688 C-4.08417402 27.17622532 -3.14661266 26.22771154 -2.2109375 25.27734375 C-1.35773926 24.41214111 -0.50454102 23.54693848 0.37451172 22.65551758 C2.38532693 20.43469001 2.38532693 20.43469001 1.87939453 17.9440918 C1.62528809 17.38761963 1.37118164 16.83114746 1.109375 16.2578125 C-1.93718488 15.93868136 -1.93718488 15.93868136 -3.88354492 17.91015625 Z " fill="#2CB472" transform="translate(47.890625,2.7421875)"/>
</svg>
