<?xml version="1.0" encoding="UTF-8"?>
<svg version="1.1" xmlns="http://www.w3.org/2000/svg" width="64" height="64">
<path d="M0 0 C8.41689603 4.59395471 14.53706338 11.08026624 17.609375 20.2578125 C19.20441691 29.15814636 19.11510903 38.75729205 14 46.4375 C10.04147118 51.93935399 5.3494246 56.79568584 -1 59.4375 C-4.465 59.9325 -4.465 59.9325 -8 60.4375 C-8 52.8475 -8 45.2575 -8 37.4375 C-5.69 37.4375 -3.38 37.4375 -1 37.4375 C-1.020625 36.48875 -1.04125 35.54 -1.0625 34.5625 C-1 31.4375 -1 31.4375 0 29.4375 C-2.97 29.4375 -5.94 29.4375 -9 29.4375 C-9.1953125 22.6015625 -9.1953125 22.6015625 -9 20.4375 C-7 18.4375 -7 18.4375 -5.0546875 18.2421875 C-3.03645833 18.30729167 -1.01822917 18.37239583 1 18.4375 C1 16.1275 1 13.8175 1 11.4375 C-0.75032844 11.57933696 -2.50025534 11.72613429 -4.25 11.875 C-5.71179687 11.99681641 -5.71179687 11.99681641 -7.203125 12.12109375 C-8.12609375 12.22550781 -9.0490625 12.32992188 -10 12.4375 C-11.10601562 12.54771484 -11.10601562 12.54771484 -12.234375 12.66015625 C-14.22787047 13.32444784 -14.22787047 13.32444784 -15.2109375 15.63671875 C-16.03255129 18.55304096 -16.40671175 21.23034592 -16.625 24.25 C-16.69976563 25.22582031 -16.77453125 26.20164062 -16.8515625 27.20703125 C-16.90054687 27.94308594 -16.94953125 28.67914062 -17 29.4375 C-19.31 29.4375 -21.62 29.4375 -24 29.4375 C-24 32.0775 -24 34.7175 -24 37.4375 C-21.69 37.4375 -19.38 37.4375 -17 37.4375 C-17 45.0275 -17 52.6175 -17 60.4375 C-26.22776715 59.28402911 -32.60550178 56.93833024 -38.4375 49.5 C-43.94153192 41.27504834 -45.99418807 33.08731189 -44.3125 23.3125 C-42.33990004 15.01979361 -38.72573927 8.78012353 -32 3.4375 C-22.78103176 -2.15488882 -10.26226942 -4.21293166 0 0 Z " fill="#1F7DFC" transform="translate(45,2.5625)"/>
</svg>
