<?xml version="1.0" encoding="UTF-8"?>
<svg version="1.1" xmlns="http://www.w3.org/2000/svg" width="64" height="64">
<path d="M0 0 C1.23533981 -0.0099852 1.23533981 -0.0099852 2.49563599 -0.02017212 C4.235512 -0.03028253 5.97542667 -0.03498964 7.71533203 -0.03466797 C10.36686658 -0.03903623 13.01672907 -0.07535715 15.66796875 -0.11328125 C17.3619735 -0.1191509 19.05598612 -0.1231193 20.75 -0.125 C21.53768768 -0.13937103 22.32537537 -0.15374207 23.13693237 -0.16854858 C28.36159177 -0.12553597 31.41154879 0.80612056 35.5078125 4.3359375 C38.3447961 7.93818029 37.83140695 12.43729533 37.84375 16.828125 C37.8504068 17.65168488 37.8570636 18.47524475 37.86392212 19.32376099 C37.87403253 21.063637 37.87873964 22.80355167 37.87841797 24.54345703 C37.88278623 27.19499158 37.91910715 29.84485407 37.95703125 32.49609375 C37.9629009 34.1900985 37.9668693 35.88411112 37.96875 37.578125 C37.98312103 38.36581268 37.99749207 39.15350037 38.01229858 39.96505737 C37.96928597 45.18971677 37.03762944 48.23967379 33.5078125 52.3359375 C29.90556971 55.1729211 25.40645467 54.65953195 21.015625 54.671875 C20.19206512 54.6785318 19.36850525 54.6851886 18.51998901 54.69204712 C16.780113 54.70215753 15.04019833 54.70686464 13.30029297 54.70654297 C10.64875842 54.71091123 7.99889593 54.74723215 5.34765625 54.78515625 C3.6536515 54.7910259 1.95963888 54.7949943 0.265625 54.796875 C-0.52206268 54.81124603 -1.30975037 54.82561707 -2.12130737 54.84042358 C-7.34596677 54.79741097 -10.39592379 53.86575444 -14.4921875 50.3359375 C-17.3291711 46.73369471 -16.81578195 42.23457967 -16.828125 37.84375 C-16.8347818 37.02019012 -16.8414386 36.19663025 -16.84829712 35.34811401 C-16.85840753 33.608238 -16.86311464 31.86832333 -16.86279297 30.12841797 C-16.86716123 27.47688342 -16.90348215 24.82702093 -16.94140625 22.17578125 C-16.9472759 20.4817765 -16.9512443 18.78776388 -16.953125 17.09375 C-16.96749603 16.30606232 -16.98186707 15.51837463 -16.99667358 14.70681763 C-16.95366097 9.48215823 -16.02200444 6.43220121 -12.4921875 2.3359375 C-8.88994471 -0.5010461 -4.39082967 0.01234305 0 0 Z M26.5078125 6.3359375 C26.1778125 7.9859375 25.8478125 9.6359375 25.5078125 11.3359375 C27.9828125 11.8309375 27.9828125 11.8309375 30.5078125 12.3359375 C31.1892948 10.44414547 31.1892948 10.44414547 31.5078125 8.3359375 C30.8478125 7.6759375 30.1878125 7.0159375 29.5078125 6.3359375 C28.5178125 6.3359375 27.5278125 6.3359375 26.5078125 6.3359375 Z M-2.8671875 16.7734375 C-6.07685872 21.83484211 -6.88307159 25.20375678 -6.02734375 31.125 C-4.8915164 35.81754219 -2.38624706 38.56663044 1.1953125 41.6484375 C5.99054825 44.09129345 10.44432496 45.25444346 15.72265625 43.671875 C21.01129732 41.24914557 23.89572044 38.09952389 26.8203125 33.0859375 C28.17378331 27.67205425 27.3321811 22.95414253 24.8203125 18.0234375 C21.14107825 13.74757067 17.71191656 11.30579896 12.1328125 10.3359375 C5.86435816 9.89196603 1.42886738 12.36432855 -2.8671875 16.7734375 Z " fill="#1F7DFC" transform="translate(21.4921875,4.6640625)"/>
<path d="M0 0 C2.8100346 1.79363911 4.50940468 3.01880935 6 6 C6.5811138 13.08958838 6.5811138 13.08958838 4.125 16.9375 C0.8698054 20.09695358 -1.42413238 20.33421243 -5.9609375 20.29296875 C-9.13134567 19.83745033 -10.8192402 18.24684343 -13 16 C-14.60086627 12.79826746 -14.49917089 9.47422941 -14 6 C-10.32759145 0.24655994 -6.71744997 -0.96515086 0 0 Z " fill="#207EFC" transform="translate(36,22)"/>
</svg>
