<?xml version="1.0" encoding="UTF-8"?>
<svg version="1.1" xmlns="http://www.w3.org/2000/svg" width="64" height="64">
<path d="M0 0 C21.12 0 42.24 0 64 0 C64 21.12 64 42.24 64 64 C42.88 64 21.76 64 0 64 C0 42.88 0 21.76 0 0 Z " fill="#0180F1" transform="translate(0,0)"/>
<path d="M0 0 C2.64 0 5.28 0 8 0 C8.33 0.66 8.66 1.32 9 2 C9.99 1.34 10.98 0.68 12 0 C15.06325633 -0.53592882 17.93879682 -0.55909859 21 0 C23.74184999 2.60475749 25.90072514 5.19597302 26.11352539 9.06298828 C26.10828857 9.89040527 26.10305176 10.71782227 26.09765625 11.5703125 C26.09443359 12.46621094 26.09121094 13.36210938 26.08789062 14.28515625 C26.07951172 15.22230469 26.07113281 16.15945312 26.0625 17.125 C26.05798828 18.06988281 26.05347656 19.01476562 26.04882812 19.98828125 C26.03702357 22.32558387 26.02055759 24.66276061 26 27 C19.84765625 27.09765625 19.84765625 27.09765625 18 27 C15.88074396 24.88074396 16.58168983 20.3803907 16.4375 17.4375 C16.39431641 16.63119141 16.35113281 15.82488281 16.30664062 14.99414062 C16.20024738 12.99631195 16.09959112 10.9981793 16 9 C14.02 8.34 12.04 7.68 10 7 C9.13580777 9.59257669 8.82419068 11.34037707 8.68359375 14.01171875 C8.64169922 14.76904297 8.59980469 15.52636719 8.55664062 16.30664062 C8.51732422 17.09232422 8.47800781 17.87800781 8.4375 18.6875 C8.39431641 19.48478516 8.35113281 20.28207031 8.30664062 21.10351562 C8.20072632 23.06881447 8.09987449 25.03438496 8 27 C5.36 27 2.72 27 0 27 C0 18.09 0 9.18 0 0 Z " fill="#F9FCFE" transform="translate(26,25)"/>
<path d="M0 0 C3.5 0.125 3.5 0.125 4.5 1.125 C4.59959621 2.96659023 4.63080411 4.81196967 4.6328125 6.65625 C4.63474609 8.33654297 4.63474609 8.33654297 4.63671875 10.05078125 C4.63285156 11.23027344 4.62898438 12.40976562 4.625 13.625 C4.62886719 14.80449219 4.63273437 15.98398437 4.63671875 17.19921875 C4.63542969 18.31941406 4.63414063 19.43960938 4.6328125 20.59375 C4.63168457 21.62951172 4.63055664 22.66527344 4.62939453 23.73242188 C4.5 26.125 4.5 26.125 3.5 27.125 C0.82941149 27.26615161 -1.82432238 27.16747107 -4.5 27.125 C-4.52886537 22.81251391 -4.54675255 18.50005238 -4.5625 14.1875 C-4.57087891 12.95580078 -4.57925781 11.72410156 -4.58789062 10.45507812 C-4.59111328 9.28525391 -4.59433594 8.11542969 -4.59765625 6.91015625 C-4.60289307 5.82613525 -4.60812988 4.74211426 -4.61352539 3.62524414 C-4.4360911 -0.28250758 -4.05164185 0.14470149 0 0 Z " fill="#EEF7FE" transform="translate(17.5,24.875)"/>
<path d="M0 0 C1.8125 1.1875 1.8125 1.1875 3 3 C3.4318188 5.87879197 3.37957373 7.36737712 1.875 9.875 C0 11 0 11 -3.0625 10.8125 C-6 10 -6 10 -8 8 C-8.36487512 5.15397406 -8.40199375 3.6135694 -6.8125 1.1875 C-4.35092224 -0.42525784 -2.88934264 -0.4334014 0 0 Z " fill="#F0F7FE" transform="translate(20,12)"/>
</svg>
