<?xml version="1.0" encoding="UTF-8"?>
<svg version="1.1" xmlns="http://www.w3.org/2000/svg" width="64" height="64">
<path d="M0 0 C4.99302594 1.48728432 7.58291983 5.48483635 10.08203125 9.89453125 C11.45134248 13.06458054 11.35542777 15.47187385 10.9375 18.875 C8.5625 21.6875 8.5625 21.6875 5.9375 23.875 C3.64691092 25.70581897 3.64691092 25.70581897 3.875 28.4375 C6.10821765 35.66261591 11.80235594 41.6070737 17.9375 45.875 C20.36160136 47.19401591 20.36160136 47.19401591 22.9375 46.875 C24.39473888 45.61205964 25.85054936 44.34718467 27.28515625 43.05859375 C29.61862564 41.38710149 31.85282708 40.9465161 34.69921875 41.12890625 C39.84319638 42.84356546 43.65811863 46.67685535 46.9375 50.875 C47.5625 54.5625 47.5625 54.5625 45.9375 57.875 C39.61330648 64.01889852 34.02900622 65.31285373 25.3515625 65.20703125 C13.28012333 64.03303545 3.97413607 53.80485534 -3.46484375 44.9765625 C-10.61526137 35.57087868 -14.15543143 26.79147816 -13.0625 14.875 C-11.168134 8.18900234 -6.90373311 1.97249518 0 0 Z " fill="#020003" transform="translate(15.0625,-0.875)"/>
</svg>
