<?xml version="1.0" encoding="UTF-8"?>
<svg version="1.1" xmlns="http://www.w3.org/2000/svg" width="64" height="64">
<path d="M0 0 C17.5999225 -1.45731842 17.5999225 -1.45731842 22.60546875 1.58203125 C24.40735296 3.95743679 25.67710371 6.32812214 27 9 C28.45930959 11.20079663 29.93897281 13.388217 31.4375 15.5625 C32.62848735 17.37271038 33.81724765 19.18439834 35 21 C41.87119121 15.89065269 47.06940837 9.12221352 52.0078125 2.17578125 C54 0 54 0 56.140625 -0.48828125 C56.83671875 -0.43027344 57.5328125 -0.37226562 58.25 -0.3125 C59.4875 -0.209375 60.725 -0.10625 62 0 C57.87758068 5.84847294 53.26140538 11.10979749 48.4140625 16.3671875 C45.52837113 19.51436546 42.75455299 22.73802936 40 26 C41.25205032 29.37711013 42.67062647 32.2309685 44.72265625 35.1875 C45.52473511 36.35079834 45.52473511 36.35079834 46.34301758 37.53759766 C47.19416138 38.75648682 47.19416138 38.75648682 48.0625 40 C48.93007935 41.25562744 48.93007935 41.25562744 49.81518555 42.53662109 C52.48609215 46.39891257 55.17381675 50.24945291 57.859375 54.1015625 C58.27823975 54.70355469 58.69710449 55.30554687 59.12866211 55.92578125 C60.24518562 57.52838048 61.36657935 59.12758349 62.48828125 60.7265625 C64 63 64 63 64 64 C46.41891242 65.45575884 46.41891242 65.45575884 41.4296875 62.453125 C39.62987844 60.07076905 38.34862032 57.66452478 37 55 C35.43467991 52.62415373 33.77412376 50.31812908 32.125 48 C31.35478572 46.87635815 30.58640884 45.75145348 29.8203125 44.625 C28.2421492 42.18277438 28.2421492 42.18277438 27 41 C26.18208984 42.01707031 26.18208984 42.01707031 25.34765625 43.0546875 C20.63780173 48.86753359 15.82147999 54.50099828 10.75 60.00390625 C8.95218021 61.88450675 8.95218021 61.88450675 8 64 C5.36 64 2.72 64 0 64 C3.35905275 59.23451459 6.98315533 54.84888888 10.9375 50.5625 C15.66325427 45.40505739 15.66325427 45.40505739 20.25 40.125 C20.83265625 39.44695313 21.4153125 38.76890625 22.015625 38.0703125 C23.2754049 35.98735151 23.2754049 35.98735151 22.37890625 33.53125 C20.97644697 30.95676384 19.46234149 28.70851751 17.6875 26.375 C13.66360198 20.96021671 9.81311534 15.44014341 6 9.875 C5.117677 8.59375244 5.117677 8.59375244 4.2175293 7.28662109 C3.67136963 6.48820801 3.12520996 5.68979492 2.5625 4.8671875 C2.06878906 4.14644043 1.57507813 3.42569336 1.06640625 2.68310547 C0 1 0 1 0 0 Z M10 5 C13.10513172 10.67254551 16.6357884 15.91558598 20.375 21.1875 C21.6225337 22.95693406 22.86992526 24.72646834 24.1171875 26.49609375 C24.75624023 27.40085449 25.39529297 28.30561523 26.05371094 29.23779297 C27.98394882 31.97721989 29.9040143 34.72346364 31.8203125 37.47265625 C32.43729004 38.35735596 33.05426758 39.24205566 33.68994141 40.15356445 C34.86224242 41.83516969 36.0338376 43.5172673 37.20458984 45.19995117 C38.27553737 46.73331706 39.35150525 48.26319209 40.43310547 49.7890625 C41.50130942 51.2963319 42.55717091 52.81240647 43.60205078 54.3359375 C44.11751465 55.06554688 44.63297852 55.79515625 45.1640625 56.546875 C45.6173291 57.20010742 46.0705957 57.85333984 46.53759766 58.52636719 C48.11552186 60.41793665 48.11552186 60.41793665 51.875 60.5 C53.421875 60.2525 53.421875 60.2525 55 60 C50.3844169 52.3800919 45.29812112 45.18202914 40.05541992 37.98681641 C36.33633971 32.87421351 32.69645442 27.7166961 29.125 22.5 C28.67189453 21.84427002 28.21878906 21.18854004 27.75195312 20.51293945 C25.76940787 17.63539361 23.84764151 14.75383648 22.0078125 11.78125 C19.74688869 8.19751493 19.74688869 8.19751493 17 5 C13.19904988 4.16046733 13.19904988 4.16046733 10 5 Z " fill="#007EF1" transform="translate(0,0)"/>
</svg>
